<svg width="15" height="18" viewBox="0 0 15 18" fill="none" xmlns="http://www.w3.org/2000/svg">
<path d="M7.59197 13.7367C8.06016 13.7367 8.50917 13.5582 8.84023 13.2404C9.17129 12.9225 9.35727 12.4915 9.35727 12.042C9.35727 11.5926 9.17129 11.1615 8.84023 10.8437C8.50917 10.5259 8.06016 10.3473 7.59197 10.3473C7.12378 10.3473 6.67477 10.5259 6.34371 10.8437C6.01266 11.1615 5.82667 11.5926 5.82667 12.042C5.82667 12.4915 6.01266 12.9225 6.34371 13.2404C6.67477 13.5582 7.12378 13.7367 7.59197 13.7367ZM12.8879 6.11062C13.3561 6.11062 13.8051 6.28917 14.1361 6.60698C14.4672 6.9248 14.6532 7.35585 14.6532 7.80531V16.2788C14.6532 16.7282 14.4672 17.1593 14.1361 17.4771C13.8051 17.7949 13.3561 17.9735 12.8879 17.9735H2.29606C1.82788 17.9735 1.37887 17.7949 1.04781 17.4771C0.716748 17.1593 0.530762 16.7282 0.530762 16.2788V7.80531C0.530762 7.35585 0.716748 6.9248 1.04781 6.60698C1.37887 6.28917 1.82788 6.11062 2.29606 6.11062H3.17872V4.41593C3.17872 3.29228 3.64368 2.21465 4.47133 1.42011C5.29897 0.625573 6.4215 0.179205 7.59197 0.179205C8.17153 0.179205 8.74541 0.288791 9.28085 0.501706C9.81629 0.714622 10.3028 1.0267 10.7126 1.42011C11.1224 1.81353 11.4475 2.28058 11.6693 2.79461C11.8911 3.30863 12.0052 3.85956 12.0052 4.41593V6.11062H12.8879ZM7.59197 1.8739C6.88969 1.8739 6.21617 2.14172 5.71958 2.61844C5.223 3.09516 4.94402 3.74174 4.94402 4.41593V6.11062H10.2399V4.41593C10.2399 3.74174 9.96095 3.09516 9.46436 2.61844C8.96777 2.14172 8.29425 1.8739 7.59197 1.8739Z" fill="black"/>
</svg>
