<svg width="80" height="75" viewBox="0 0 80 75" fill="none" xmlns="http://www.w3.org/2000/svg">
<g filter="url(#filter0_d_184_212)">
<g clip-path="url(#clip0_184_212)">
<rect x="10" y="10" width="60" height="55" rx="24" fill="white"/>
<path d="M36.9499 48C34.4678 48 32.0413 47.264 29.9775 45.885C27.9137 44.506 26.3051 42.5459 25.3552 40.2527C24.4053 37.9595 24.1568 35.4361 24.6411 33.0016C25.1253 30.5672 26.3206 28.331 28.0757 26.5758C29.8309 24.8207 32.0671 23.6254 34.5015 23.1412C36.936 22.6569 39.4594 22.9055 41.7526 23.8553C44.0458 24.8052 46.0058 26.4138 47.3849 28.4776C48.7639 30.5415 49.4999 32.9679 49.4999 35.45C49.4999 37.0981 49.1753 38.7301 48.5446 40.2527C47.9139 41.7753 46.9895 43.1588 45.8241 44.3242C44.6587 45.4896 43.2752 46.414 41.7526 47.0447C40.2299 47.6754 38.598 48 36.9499 48ZM36.9499 25.4167C34.9721 25.4167 33.0387 26.0032 31.3942 27.102C29.7497 28.2008 28.468 29.7626 27.7111 31.5899C26.9542 33.4171 26.7562 35.4278 27.1421 37.3676C27.5279 39.3074 28.4803 41.0892 29.8788 42.4878C31.2774 43.8863 33.0592 44.8387 34.999 45.2246C36.9388 45.6104 38.9495 45.4124 40.7767 44.6555C42.604 43.8986 44.1658 42.6169 45.2646 40.9724C46.3634 39.3279 46.9499 37.3945 46.9499 35.4167C46.9499 32.7645 45.8963 30.221 44.021 28.3456C42.1456 26.4703 39.6021 25.4167 36.9499 25.4167Z" fill="black"/>
<path d="M52.3331 52.0834C52.1689 52.0841 52.0061 52.0521 51.8545 51.9891C51.7028 51.9262 51.5652 51.8335 51.4498 51.7167L44.5664 44.8334C44.3456 44.5964 44.2254 44.283 44.2312 43.9591C44.2369 43.6353 44.3681 43.3263 44.5971 43.0973C44.8261 42.8683 45.1351 42.7371 45.4589 42.7314C45.7827 42.7257 46.0962 42.8459 46.3331 43.0667L53.2164 49.95C53.4505 50.1844 53.582 50.5021 53.582 50.8334C53.582 51.1646 53.4505 51.4823 53.2164 51.7167C53.101 51.8335 52.9635 51.9262 52.8118 51.9891C52.6601 52.0521 52.4973 52.0841 52.3331 52.0834Z" fill="black"/>
</g>
</g>
<defs>
<filter id="filter0_d_184_212" x="0" y="0" width="80" height="75" filterUnits="userSpaceOnUse" color-interpolation-filters="sRGB">
<feFlood flood-opacity="0" result="BackgroundImageFix"/>
<feColorMatrix in="SourceAlpha" type="matrix" values="0 0 0 0 0 0 0 0 0 0 0 0 0 0 0 0 0 0 127 0" result="hardAlpha"/>
<feOffset/>
<feGaussianBlur stdDeviation="5"/>
<feComposite in2="hardAlpha" operator="out"/>
<feColorMatrix type="matrix" values="0 0 0 0 0.2 0 0 0 0 0.647059 0 0 0 0 0.556863 0 0 0 1 0"/>
<feBlend mode="normal" in2="BackgroundImageFix" result="effect1_dropShadow_184_212"/>
<feBlend mode="normal" in="SourceGraphic" in2="effect1_dropShadow_184_212" result="shape"/>
</filter>
<clipPath id="clip0_184_212">
<rect x="10" y="10" width="60" height="55" rx="24" fill="white"/>
</clipPath>
</defs>
</svg>
